<?xml version="1.0" encoding="UTF-8" standalone="no"?>
<svg
   viewBox="0 0 320 512"
   version="1.1"
   id="svg1"
   sodipodi:docname="facebook-f-brands_333.svg"
   inkscape:version="1.3.2 (091e20e, 2023-11-25, custom)"
   xmlns:inkscape="http://www.inkscape.org/namespaces/inkscape"
   xmlns:sodipodi="http://sodipodi.sourceforge.net/DTD/sodipodi-0.dtd"
   xmlns="http://www.w3.org/2000/svg"
   xmlns:svg="http://www.w3.org/2000/svg">
  <defs
     id="defs1" />
  <sodipodi:namedview
     id="namedview1"
     pagecolor="#505050"
     bordercolor="#eeeeee"
     borderopacity="1"
     inkscape:showpageshadow="0"
     inkscape:pageopacity="0"
     inkscape:pagecheckerboard="0"
     inkscape:deskcolor="#505050"
     inkscape:zoom="1.6816406"
     inkscape:cx="159.66551"
     inkscape:cy="256"
     inkscape:window-width="1920"
     inkscape:window-height="1057"
     inkscape:window-x="1912"
     inkscape:window-y="-8"
     inkscape:window-maximized="1"
     inkscape:current-layer="svg1"
     showgrid="false" />
  <!--!Font Awesome Free 6.7.2 by @fontawesome - https://fontawesome.com License - https://fontawesome.com/license/free Copyright 2025 Fonticons, Inc.-->
  <path
     d="M80 299.3V512H196V299.3h86.5l18-97.8H196V166.9c0-51.7 20.3-71.5 72.7-71.5c16.3 0 29.4 .4 37 1.2V7.9C291.4 4 256.4 0 236.2 0C129.3 0 80 50.5 80 159.4v42.1H14v97.8H80z"
     id="path1" />
  <path
     style="fill:#333333;stroke-width:0;fill-opacity:1"
     d="m 80.429039,405.40767 -0.150293,-106.29501 -32.85482,-0.1537 -32.85482,-0.1537 v -48.45451 -48.4545 l 32.85482,-0.1537 32.85482,-0.1537 0.354867,-33.89547 c 0.376847,-35.99516 0.650443,-40.13512 3.79235,-57.38444 C 94.741883,53.673699 125.75426,19.627338 178.99187,6.4915338 194.35694,2.7003683 216.1449,0.29658438 235.13062,0.29795546 c 18.26647,0.00132 50.40736,3.36097704 66.212,6.92108044 l 4.01394,0.904167 V 52.058811 95.994416 l -12.9338,-0.28647 c -7.11358,-0.15756 -15.07456,-0.395638 -17.69105,-0.529061 -2.6165,-0.133423 -9.17259,-0.01534 -14.56911,0.262405 -15.99818,0.823392 -25.524,2.900596 -35.38211,7.71545 -12.5339,6.12174 -20.15023,15.30725 -24.66706,29.74918 -3.50121,11.19461 -3.71025,13.40792 -4.00168,42.36934 l -0.26778,26.61092 h 52.08034 c 28.64419,0 52.08034,0.15203 52.08034,0.33785 0,0.64101 -17.30019,94.51244 -17.60967,95.55065 -0.29172,0.97866 -2.87589,1.04065 -43.38279,1.04065 H 195.93961 V 405.259 511.70267 H 138.25947 80.579333 Z"
     id="path2" />
</svg>
