<?xml version="1.0" encoding="UTF-8" standalone="no"?>
<svg
   viewBox="0 0 512 512"
   version="1.1"
   id="svg1"
   sodipodi:docname="phone-solid.svg"
   inkscape:version="1.3.2 (091e20e, 2023-11-25, custom)"
   xmlns:inkscape="http://www.inkscape.org/namespaces/inkscape"
   xmlns:sodipodi="http://sodipodi.sourceforge.net/DTD/sodipodi-0.dtd"
   xmlns="http://www.w3.org/2000/svg"
   xmlns:svg="http://www.w3.org/2000/svg">
  <defs
     id="defs1" />
  <sodipodi:namedview
     id="namedview1"
     pagecolor="#505050"
     bordercolor="#eeeeee"
     borderopacity="1"
     inkscape:showpageshadow="0"
     inkscape:pageopacity="0"
     inkscape:pagecheckerboard="0"
     inkscape:deskcolor="#505050"
     inkscape:zoom="1.6816406"
     inkscape:cx="255.70267"
     inkscape:cy="256"
     inkscape:window-width="1920"
     inkscape:window-height="1057"
     inkscape:window-x="-8"
     inkscape:window-y="-8"
     inkscape:window-maximized="1"
     inkscape:current-layer="svg1" />
  <!--!Font Awesome Free 6.7.2 by @fontawesome - https://fontawesome.com License - https://fontawesome.com/license/free Copyright 2025 Fonticons, Inc.-->
  <path
     d="M164.9 24.6c-7.7-18.6-28-28.5-47.4-23.2l-88 24C12.1 30.2 0 46 0 64C0 311.4 200.6 512 448 512c18 0 33.8-12.1 38.6-29.5l24-88c5.3-19.4-4.6-39.7-23.2-47.4l-96-40c-16.3-6.8-35.2-2.1-46.3 11.6L304.7 368C234.3 334.7 177.3 277.7 144 207.3L193.3 167c13.7-11.2 18.4-30 11.6-46.3l-40-96z"
     id="path1" />
  <path
     style="fill:#ffffff;stroke-width:0"
     d="M 428.15331,511.28685 C 335.74812,507.22709 245.813,474.06425 173.0453,417.21786 148.85057,398.31685 123.9436,374.26817 104.61452,351.14518 68.194404,307.57654 40.101504,257.08578 22.725296,203.96748 9.9901684,165.03675 3.1674974,128.33013 0.89579026,86.522648 -0.4034131,62.612688 0.22475527,55.529992 4.403033,46.977933 8.570481,38.448038 14.965644,32.056349 23.240554,28.150644 25.299143,27.179003 47.076093,20.921531 73.786431,13.6266 125.67315,-0.54432092 126.84966,-0.7813553 135.87921,1.1165526 c 7.1716,1.5073875 14.72672,5.5948772 19.80471,10.7147904 2.3534,2.372838 5.12643,5.765812 6.16228,7.539943 2.46612,4.223791 43.3788,102.481044 44.64289,107.215864 1.31647,4.93096 1.27217,14.36652 -0.0911,19.40124 -1.34066,4.95131 -5.0086,11.98352 -8.16977,15.66318 -1.35988,1.58292 -13.46947,11.85953 -26.9102,22.8369 -13.44072,10.97737 -25.16986,20.63329 -26.06476,21.45761 l -1.62708,1.49876 5.54272,10.74912 c 32.32005,62.67907 84.88956,114.78508 147.39905,146.09945 4.57639,2.29255 8.3793,4.08531 8.45092,3.98389 0.0716,-0.10141 9.72773,-11.91869 21.45802,-26.26063 12.52115,-15.30888 22.69272,-27.19561 24.63334,-28.78711 3.72737,-3.05682 11.19443,-6.74079 16.09067,-7.93855 4.42498,-1.08246 13.71304,-0.96694 18.21292,0.22653 4.74429,1.2583 102.99839,42.15708 107.21486,44.62875 1.77414,1.03998 5.16711,3.81639 7.53995,6.16979 5.11991,5.07799 9.2074,12.63311 10.71479,19.80471 1.89791,9.02955 1.66087,10.20606 -12.51005,62.09278 -7.29493,26.71034 -13.55241,48.48729 -14.52405,50.54588 -2.31381,4.90221 -6.66649,10.52186 -10.71742,13.83704 -4.2812,3.50363 -11.69921,7.07772 -17.02972,8.20513 -3.9312,0.83146 -15.49767,1.03227 -27.9489,0.48523 z"
     id="path2" />
</svg>
