<?xml version="1.0" encoding="UTF-8" standalone="no"?>
<svg
   viewBox="0 0 512 512"
   version="1.1"
   id="svg1"
   sodipodi:docname="twitter-brands_333.svg"
   inkscape:version="1.3.2 (091e20e, 2023-11-25, custom)"
   xmlns:inkscape="http://www.inkscape.org/namespaces/inkscape"
   xmlns:sodipodi="http://sodipodi.sourceforge.net/DTD/sodipodi-0.dtd"
   xmlns="http://www.w3.org/2000/svg"
   xmlns:svg="http://www.w3.org/2000/svg">
  <defs
     id="defs1" />
  <sodipodi:namedview
     id="namedview1"
     pagecolor="#505050"
     bordercolor="#eeeeee"
     borderopacity="1"
     inkscape:showpageshadow="0"
     inkscape:pageopacity="0"
     inkscape:pagecheckerboard="0"
     inkscape:deskcolor="#505050"
     inkscape:zoom="0.29727487"
     inkscape:cx="1697.0826"
     inkscape:cy="933.47952"
     inkscape:window-width="1920"
     inkscape:window-height="1057"
     inkscape:window-x="1912"
     inkscape:window-y="-8"
     inkscape:window-maximized="1"
     inkscape:current-layer="svg1" />
  <!--!Font Awesome Free 6.7.2 by @fontawesome - https://fontawesome.com License - https://fontawesome.com/license/free Copyright 2025 Fonticons, Inc.-->
  <path
     d="M459.4 151.7c.3 4.5 .3 9.1 .3 13.6 0 138.7-105.6 298.6-298.6 298.6-59.5 0-114.7-17.2-161.1-47.1 8.4 1 16.6 1.3 25.3 1.3 49.1 0 94.2-16.6 130.3-44.8-46.1-1-84.8-31.2-98.1-72.8 6.5 1 13 1.6 19.8 1.6 9.4 0 18.8-1.3 27.6-3.6-48.1-9.7-84.1-52-84.1-103v-1.3c14 7.8 30.2 12.7 47.4 13.3-28.3-18.8-46.8-51-46.8-87.4 0-19.5 5.2-37.4 14.3-53 51.7 63.7 129.3 105.3 216.4 109.8-1.6-7.8-2.6-15.9-2.6-24 0-57.8 46.8-104.9 104.9-104.9 30.2 0 57.5 12.7 76.7 33.1 23.7-4.5 46.5-13.3 66.6-25.3-7.8 24.4-24.4 44.8-46.1 57.8 21.1-2.3 41.6-8.1 60.4-16.2-14.3 20.8-32.2 39.3-52.6 54.3z"
     id="path1"
     style="fill:#333333;fill-opacity:1" />
  <path
     style="fill:#333333;stroke-width:0;fill-opacity:1"
     d="M 139.44715,462.85859 C 93.308474,459.42289 49.027019,445.59567 9.6801146,422.33784 c -4.4877839,-2.65271 -8.0973032,-4.88542 -8.0211541,-4.96157 0.076149,-0.0761 3.2127804,0.13723 6.9702923,0.47417 13.8770732,1.24438 37.8050432,0.0235 54.1071002,-2.76077 30.350016,-5.18351 62.900327,-19.1033 87.352457,-37.35533 l 5.71142,-4.26322 -3.86527,-0.46533 c -20.44955,-2.46181 -31.54,-5.73335 -45.4439,-13.40537 C 85.161798,347.83118 67.559262,327.33437 59.2295,304.56792 l -1.267624,-3.46459 5.509188,0.4913 c 10.305918,0.91909 25.031204,0.50351 32.805535,-0.92582 8.171351,-1.50233 9.879401,-2.15439 7.185381,-2.74304 -0.97656,-0.21338 -5.130929,-1.42869 -9.23193,-2.7007 C 53.155439,282.48495 23.787236,244.79318 21.323448,201.6552 l -0.400615,-7.01428 4.354653,2.19296 c 11.372698,5.7272 24.603368,9.39428 38.796846,10.75314 2.207666,0.21136 4.003787,0.15241 3.991376,-0.13098 -0.01243,-0.2834 -1.417288,-1.48844 -3.121951,-2.67785 -15.171041,-10.58549 -29.133023,-28.6631 -36.157281,-46.8155 -7.625292,-19.70562 -9.078522,-42.06818 -4.067382,-62.58958 0.948811,-3.885524 2.630924,-9.410043 3.738032,-12.276708 2.373172,-6.144926 6.751015,-15.025917 7.377618,-14.966402 0.241645,0.02295 2.446325,2.468998 4.899286,5.435658 6.071827,7.343388 23.175118,24.515121 31.516841,31.642962 41.805989,35.72242 91.783609,59.16011 145.244379,68.11435 11.07376,1.85476 26.39076,3.5876 31.71169,3.5876 2.86314,0 3.26604,-0.1392 3.01203,-1.04065 -2.20148,-7.81298 -2.67494,-32.94764 -0.7869,-41.77468 1.80549,-8.44113 3.37279,-13.66455 6.15577,-20.51568 13.23543,-32.582885 41.48109,-55.931855 76.6096,-63.328506 7.65185,-1.611171 23.89083,-2.242104 32.17822,-1.250219 22.23252,2.660924 43.57844,12.53928 59.34445,27.46312 2.73481,2.588727 5.47817,4.706777 6.09634,4.706777 1.76143,0 15.2679,-3.393583 22.66347,-5.694332 10.06535,-3.13131 21.79495,-8.013915 32.66885,-13.598846 10.96462,-5.631529 10.4255,-5.836197 6.85343,2.601809 -7.71898,18.233884 -20.58064,33.904711 -37.1961,45.320257 -2.88348,1.98108 -5.12577,3.71888 -4.98287,3.86178 0.1429,0.1429 3.1711,-0.16955 6.72933,-0.69433 14.78135,-2.18003 29.8599,-6.1112 43.93292,-11.45386 4.2518,-1.614143 7.82909,-2.850554 7.94953,-2.747577 0.32387,0.276917 -6.46202,9.123877 -12.73108,16.597897 -7.20188,8.5861 -22.57979,23.5696 -31.34388,30.53996 l -6.98723,5.55716 -0.002,11.98164 c -0.016,79.10757 -31.59898,156.76808 -86.81759,213.47885 -15.12966,15.5385 -28.13895,26.37501 -45.78862,38.14113 -38.01175,25.34044 -78.62157,40.23993 -125.47271,46.03515 -19.18171,2.37267 -44.10216,3.08234 -61.84437,1.76117 z"
     id="path2" />
</svg>
