<?xml version="1.0" encoding="UTF-8" standalone="no"?>
<svg
   viewBox="0 0 576 512"
   version="1.1"
   id="svg1"
   sodipodi:docname="youtube-brands_333.svg"
   inkscape:version="1.3.2 (091e20e, 2023-11-25, custom)"
   xmlns:inkscape="http://www.inkscape.org/namespaces/inkscape"
   xmlns:sodipodi="http://sodipodi.sourceforge.net/DTD/sodipodi-0.dtd"
   xmlns="http://www.w3.org/2000/svg"
   xmlns:svg="http://www.w3.org/2000/svg">
  <defs
     id="defs1" />
  <sodipodi:namedview
     id="namedview1"
     pagecolor="#505050"
     bordercolor="#eeeeee"
     borderopacity="1"
     inkscape:showpageshadow="0"
     inkscape:pageopacity="0"
     inkscape:pagecheckerboard="0"
     inkscape:deskcolor="#505050"
     inkscape:zoom="0.42041015"
     inkscape:cx="588.71081"
     inkscape:cy="353.22649"
     inkscape:window-width="1920"
     inkscape:window-height="1057"
     inkscape:window-x="1912"
     inkscape:window-y="-8"
     inkscape:window-maximized="1"
     inkscape:current-layer="svg1" />
  <!--!Font Awesome Free 6.7.2 by @fontawesome - https://fontawesome.com License - https://fontawesome.com/license/free Copyright 2025 Fonticons, Inc.-->
  <path
     d="M549.7 124.1c-6.3-23.7-24.8-42.3-48.3-48.6C458.8 64 288 64 288 64S117.2 64 74.6 75.5c-23.5 6.3-42 24.9-48.3 48.6-11.4 42.9-11.4 132.3-11.4 132.3s0 89.4 11.4 132.3c6.3 23.7 24.8 41.5 48.3 47.8C117.2 448 288 448 288 448s170.8 0 213.4-11.5c23.5-6.3 42-24.2 48.3-47.8 11.4-42.9 11.4-132.3 11.4-132.3s0-89.4-11.4-132.3zm-317.5 213.5V175.2l142.7 81.2-142.7 81.2z"
     id="path1"
     style="fill:#333333;fill-opacity:1" />
  <path
     style="fill:#333333;stroke-width:0;fill-opacity:1"
     d="M 229.53775,447.07811 C 151.42038,445.48183 96.6013,441.68991 75.965981,436.45533 64.532279,433.55493 54.309203,428.0085 45.986215,420.19008 35.902422,410.71761 30.581444,402.03605 26.743939,388.79492 18.95105,361.90593 13.915051,291.00226 15.657741,232.70828 c 1.427195,-47.74048 4.687403,-82.0389 9.912781,-104.28557 3.361982,-14.3134 9.245314,-25.23074 18.731452,-34.758818 11.288192,-11.338097 23.195585,-17.098516 41.661351,-20.154439 21.237595,-3.514634 52.429405,-5.714185 111.165595,-7.839056 27.68828,-1.001665 121.77915,-1.382055 154.31359,-0.623858 77.83122,1.813815 127.33454,5.248816 147.77236,10.253822 12.86387,3.150227 23.76368,9.430048 33.04566,19.038943 13.92126,14.411566 19.11071,29.089226 23.41215,66.218186 5.60067,48.3434 6.49846,111.39423 2.37514,166.8014 -2.03292,27.31731 -5.84594,52.8712 -9.58301,64.22299 -7.14093,21.69136 -24.64659,38.31593 -46.87131,44.5122 -18.95364,5.28429 -69.09508,8.96124 -147.1777,10.79277 -21.49851,0.50429 -103.41983,0.62975 -124.87805,0.19126 z m 93.53526,-160.75058 c 28.49991,-16.18955 51.74827,-29.67209 51.66302,-29.96122 -0.16928,-0.5741 -140.38174,-80.58826 -142.07633,-81.0778 -0.98748,-0.28526 -1.04065,3.84514 -1.04065,80.84035 0,44.62754 0.14864,81.28962 0.33032,81.4713 0.18167,0.18168 9.09976,-4.65735 19.81797,-10.75339 10.71821,-6.09603 42.80576,-24.3297 71.30567,-40.51924 z"
     id="path2" />
</svg>
